<svg width="28" height="28" viewBox="0 0 28 28" fill="none" xmlns="http://www.w3.org/2000/svg">
    <mask id="mask0_6_1001" style="mask-type:alpha" maskUnits="userSpaceOnUse" x="0" y="0" width="28" height="28">
        <rect width="28" height="28" fill="#D9D9D9"/>
    </mask>
    <g mask="url(#mask0_6_1001)">
        <path d="M8.60194 14.875L14.6327 20.9058C14.8062 21.0792 14.8918 21.2822 14.8897 21.5148C14.8874 21.7473 14.7958 21.9541 14.6149 22.1352C14.4339 22.3041 14.229 22.3916 14.0001 22.3977C13.7712 22.4037 13.5663 22.3162 13.3853 22.1352L5.98832 14.7382C5.87904 14.6289 5.80204 14.5137 5.75732 14.3926C5.7124 14.2714 5.68994 14.1406 5.68994 14C5.68994 13.8594 5.7124 13.7286 5.75732 13.6074C5.80204 13.4863 5.87904 13.3711 5.98832 13.2618L13.3853 5.86483C13.5469 5.70325 13.7469 5.62061 13.9855 5.61692C14.2241 5.61322 14.4339 5.69586 14.6149 5.86483C14.7958 6.04586 14.8862 6.25372 14.8862 6.48842C14.8862 6.72331 14.7958 6.93126 14.6149 7.11229L8.60194 13.125H21.8751C22.1234 13.125 22.3313 13.2088 22.4987 13.3764C22.6663 13.5438 22.7501 13.7517 22.7501 14C22.7501 14.2483 22.6663 14.4562 22.4987 14.6236C22.3313 14.7912 22.1234 14.875 21.8751 14.875H8.60194Z" fill="#9C9C9C"/>
    </g>
</svg>
