<svg width="24" height="24" viewBox="0 0 24 24" fill="none" xmlns="http://www.w3.org/2000/svg">
    <mask id="mask0_60_411" style="mask-type:alpha" maskUnits="userSpaceOnUse" x="0" y="0" width="24" height="24">
        <rect width="24" height="24" fill="#D9D9D9"/>
    </mask>
    <g mask="url(#mask0_60_411)">
        <path d="M16.6115 13.2791H5.25C5.03717 13.2791 4.859 13.2056 4.7155 13.0586C4.57183 12.9117 4.5 12.7294 4.5 12.5116C4.5 12.2939 4.57183 12.1115 4.7155 11.9647C4.859 11.8177 5.03717 11.7442 5.25 11.7442H16.6115L13.3193 8.37539C13.1706 8.22309 13.0972 8.04496 13.099 7.84099C13.101 7.63702 13.1744 7.45565 13.3193 7.29688C13.4744 7.13827 13.6526 7.05632 13.8538 7.05104C14.0551 7.04575 14.2333 7.12249 14.3885 7.28127L18.8673 11.8642C18.9609 11.96 19.0269 12.0611 19.0652 12.1673C19.1037 12.2736 19.123 12.3883 19.123 12.5116C19.123 12.6349 19.1037 12.7497 19.0652 12.856C19.0269 12.9622 18.9609 13.0633 18.8673 13.1591L14.3885 17.742C14.2397 17.8941 14.0631 17.9693 13.8587 17.9674C13.6542 17.9653 13.4744 17.885 13.3193 17.7264C13.1744 17.5676 13.0994 17.3879 13.0943 17.1872C13.0891 16.9864 13.1641 16.8067 13.3193 16.6479L16.6115 13.2791Z" fill="#9A9A9A"/>
    </g>
</svg>
