<svg width="36" height="36" viewBox="0 0 36 36" fill="none" xmlns="http://www.w3.org/2000/svg">
    <mask id="mask0_41_1953" style="mask-type:alpha" maskUnits="userSpaceOnUse" x="0" y="0" width="36" height="36">
        <rect width="36" height="36" fill="#D9D9D9"/>
    </mask>
    <g mask="url(#mask0_41_1953)">
        <path d="M11.0594 19.1251L18.8133 26.879C19.0363 27.102 19.1464 27.363 19.1437 27.662C19.1407 27.961 19.0229 28.2268 18.7904 28.4596C18.5577 28.6768 18.2942 28.7893 17.9999 28.7971C17.7057 28.8048 17.4422 28.6923 17.2094 28.4596L7.69905 18.9492C7.55855 18.8087 7.45955 18.6606 7.40205 18.5048C7.3443 18.3491 7.31543 18.1808 7.31543 18.0001C7.31543 17.8193 7.3443 17.6511 7.40205 17.4953C7.45955 17.3396 7.55855 17.1915 7.69905 17.051L17.2094 7.54058C17.4172 7.33283 17.6744 7.22658 17.9812 7.22183C18.2879 7.21708 18.5577 7.32333 18.7904 7.54058C19.0229 7.77333 19.1392 8.04058 19.1392 8.34233C19.1392 8.64433 19.0229 8.91171 18.7904 9.14446L11.0594 16.8751H28.1249C28.4442 16.8751 28.7114 16.9828 28.9267 17.1983C29.1422 17.4136 29.2499 17.6808 29.2499 18.0001C29.2499 18.3193 29.1422 18.5866 28.9267 18.8018C28.7114 19.0173 28.4442 19.1251 28.1249 19.1251H11.0594Z" fill="#9C9C9C"/>
    </g>
</svg>
