<svg width="24" height="24" viewBox="0 0 24 24" fill="none" xmlns="http://www.w3.org/2000/svg">
    <mask id="mask0_6_834" style="mask-type:alpha" maskUnits="userSpaceOnUse" x="0" y="0" width="24" height="24">
        <rect width="24" height="24" fill="#D9D9D9"/>
    </mask>
    <g mask="url(#mask0_6_834)">
        <path d="M12.0685 19.5135C14.0361 17.7622 15.5417 16.0823 16.5855 14.474C17.6292 12.8657 18.1511 11.457 18.1511 10.248C18.1511 8.425 17.5686 6.92633 16.4037 5.752C15.2387 4.57767 13.7937 3.9905 12.0685 3.9905C10.3434 3.9905 8.89837 4.57767 7.73342 5.752C6.56846 6.92633 5.98599 8.425 5.98599 10.248C5.98599 11.457 6.50787 12.8657 7.55163 14.474C8.5954 16.0823 10.101 17.7622 12.0685 19.5135ZM12.0685 20.9403C11.8726 20.9403 11.6767 20.9067 11.4807 20.8395C11.2846 20.7722 11.1073 20.668 10.9487 20.527C10.0462 19.7 9.20168 18.8483 8.41504 17.972C7.62857 17.0958 6.94494 16.2199 6.36414 15.3443C5.78317 14.4686 5.32347 13.6007 4.98505 12.7405C4.64663 11.8802 4.47742 11.0493 4.47742 10.248C4.47742 7.94033 5.2281 6.07208 6.72946 4.64325C8.23099 3.21442 10.0107 2.5 12.0685 2.5C14.1264 2.5 15.9061 3.21442 17.4076 4.64325C18.909 6.07208 19.6597 7.94033 19.6597 10.248C19.6597 11.0493 19.4905 11.8785 19.152 12.7355C18.8136 13.5927 18.3556 14.4607 17.778 15.3395C17.2002 16.2183 16.5181 17.0942 15.7316 17.9672C14.9451 18.8404 14.1006 19.6904 13.198 20.5173C13.0417 20.6583 12.8642 20.764 12.6652 20.8345C12.4664 20.905 12.2675 20.9403 12.0685 20.9403ZM12.0703 11.8652C12.5707 11.8652 12.9984 11.6881 13.3536 11.3338C13.709 10.9794 13.8866 10.5535 13.8866 10.056C13.8866 9.5585 13.7084 9.13308 13.3521 8.77975C12.9957 8.42658 12.5673 8.25 12.0668 8.25C11.5664 8.25 11.1387 8.42717 10.7835 8.7815C10.4281 9.13583 10.2505 9.56183 10.2505 10.0595C10.2505 10.557 10.4286 10.9823 10.785 11.3355C11.1414 11.6887 11.5698 11.8652 12.0703 11.8652Z" fill="#9D9D9D"/>
    </g>
</svg>
