<svg width="28" height="28" viewBox="0 0 28 28" fill="none" xmlns="http://www.w3.org/2000/svg">
    <mask id="mask0_6_965" style="mask-type:alpha" maskUnits="userSpaceOnUse" x="0" y="0" width="28" height="28">
        <rect width="28" height="28" fill="#D9D9D9"/>
    </mask>
    <g mask="url(#mask0_6_965)">
        <path d="M5.8335 22.1667H7.30525L19.2478 10.2241L17.7761 8.75233L5.8335 20.6949V22.1667ZM5.13816 23.9167C4.8393 23.9167 4.58886 23.8155 4.38683 23.6133C4.18461 23.4113 4.0835 23.1609 4.0835 22.862V20.8407C4.0835 20.5563 4.13813 20.2851 4.24741 20.0273C4.3565 19.7695 4.5068 19.5448 4.69833 19.3532L19.4724 4.58587C19.6488 4.42565 19.8435 4.30188 20.0566 4.21458C20.2699 4.12708 20.4935 4.08333 20.7275 4.08333C20.9614 4.08333 21.1879 4.12484 21.407 4.20787C21.6264 4.2909 21.8205 4.42292 21.9895 4.60395L23.4143 6.04654C23.5953 6.21551 23.7243 6.40995 23.8013 6.62987C23.8783 6.84979 23.9168 7.0697 23.9168 7.28962C23.9168 7.52431 23.8768 7.74822 23.7967 7.96133C23.7166 8.17463 23.5891 8.36947 23.4143 8.54583L8.64691 23.3018C8.45538 23.4934 8.2307 23.6437 7.97287 23.7527C7.71504 23.862 7.44389 23.9167 7.15941 23.9167H5.13816ZM18.4991 9.50104L17.7761 8.75233L19.2478 10.2241L18.4991 9.50104Z" fill="#9C9C9C"/>
    </g>
</svg>
