<svg width="28" height="28" viewBox="0 0 28 28" fill="none" xmlns="http://www.w3.org/2000/svg">
    <mask id="mask0_41_2370" style="mask-type:alpha" maskUnits="userSpaceOnUse" x="0" y="0" width="28" height="28">
        <rect width="28" height="28" fill="#D9D9D9"/>
    </mask>
    <g mask="url(#mask0_41_2370)">
        <path d="M14 13.641C12.8771 13.641 11.9158 13.2412 11.1163 12.4416C10.3165 11.6419 9.91667 10.6805 9.91667 9.55762C9.91667 8.43471 10.3165 7.47347 11.1163 6.67391C11.9158 5.87416 12.8771 5.47429 14 5.47429C15.1229 5.47429 16.0842 5.87416 16.8837 6.67391C17.6835 7.47347 18.0833 8.43471 18.0833 9.55762C18.0833 10.6805 17.6835 11.6419 16.8837 12.4416C16.0842 13.2412 15.1229 13.641 14 13.641ZM5.25 20.7532V19.9319C5.25 19.3606 5.40517 18.8316 5.7155 18.3447C6.02583 17.8578 6.44058 17.4835 6.95975 17.2217C8.11281 16.6565 9.27607 16.2325 10.4495 15.9498C11.623 15.6671 12.8065 15.5257 14 15.5257C15.1935 15.5257 16.377 15.6671 17.5505 15.9498C18.7239 16.2325 19.8872 16.6565 21.0402 17.2217C21.5594 17.4835 21.9742 17.8578 22.2845 18.3447C22.5948 18.8316 22.75 19.3606 22.75 19.9319V20.7532C22.75 21.2452 22.5776 21.6636 22.2329 22.0086C21.8881 22.3533 21.4697 22.5257 20.9775 22.5257H7.02246C6.53032 22.5257 6.11187 22.3533 5.76712 22.0086C5.42237 21.6636 5.25 21.2452 5.25 20.7532ZM7 20.7757H21V19.9319C21 19.6957 20.9316 19.4769 20.7947 19.2757C20.6578 19.0746 20.472 18.9105 20.2373 18.7833C19.232 18.2883 18.2071 17.9132 17.1625 17.6581C16.1178 17.4032 15.0636 17.2757 14 17.2757C12.9364 17.2757 11.8822 17.4032 10.8375 17.6581C9.7929 17.9132 8.76799 18.2883 7.76271 18.7833C7.52801 18.9105 7.34222 19.0746 7.20533 19.2757C7.06844 19.4769 7 19.6957 7 19.9319V20.7757ZM14 11.891C14.6417 11.891 15.191 11.6625 15.6479 11.2055C16.1049 10.7486 16.3333 10.1993 16.3333 9.55762C16.3333 8.91596 16.1049 8.36665 15.6479 7.90971C15.191 7.45276 14.6417 7.22429 14 7.22429C13.3583 7.22429 12.809 7.45276 12.3521 7.90971C11.8951 8.36665 11.6667 8.91596 11.6667 9.55762C11.6667 10.1993 11.8951 10.7486 12.3521 11.2055C12.809 11.6625 13.3583 11.891 14 11.891Z" fill="#9A9A9A"/>
    </g>
</svg>
