<svg width="28" height="28" viewBox="0 0 28 28" fill="none" xmlns="http://www.w3.org/2000/svg">
    <mask id="mask0_33_1422" style="mask-type:alpha" maskUnits="userSpaceOnUse" x="0" y="0" width="28" height="28">
        <rect width="28" height="28" fill="#D9D9D9"/>
    </mask>
    <g mask="url(#mask0_33_1422)">
        <path d="M12.7076 25.0833C12.3098 25.0833 11.9662 24.9513 11.6769 24.6872C11.3873 24.4234 11.2112 24.0985 11.1484 23.7125L10.8634 21.5294C10.5509 21.4248 10.2305 21.2782 9.90208 21.0898C9.57385 20.9012 9.28034 20.6993 9.02153 20.484L6.99999 21.3433C6.63347 21.5049 6.26519 21.5205 5.89516 21.3902C5.52494 21.2602 5.23735 21.0239 5.03241 20.6815L3.71758 18.4018C3.51263 18.0594 3.45362 17.6971 3.54053 17.3148C3.62726 16.9327 3.82617 16.6175 4.13728 16.3692L5.88495 15.0567C5.85812 14.8833 5.83906 14.709 5.82778 14.534C5.81651 14.359 5.81087 14.1847 5.81087 14.0111C5.81087 13.8452 5.81651 13.6766 5.82778 13.5053C5.83906 13.334 5.85812 13.1467 5.88495 12.9433L4.13728 11.6308C3.82617 11.3825 3.6291 11.0653 3.54608 10.6794C3.46305 10.2936 3.52401 9.9294 3.72895 9.58679L5.03241 7.34096C5.23735 7.00593 5.52494 6.77153 5.89516 6.63775C6.26519 6.50378 6.63347 6.51758 6.99999 6.67916L9.01016 7.52733C9.29152 7.3045 9.59184 7.10072 9.91112 6.916C10.2304 6.73128 10.5441 6.58282 10.8523 6.47062L11.1484 4.2875C11.2112 3.90153 11.3873 3.57661 11.6769 3.31275C11.9662 3.04869 12.3098 2.91666 12.7076 2.91666H15.2924C15.6902 2.91666 16.0338 3.04869 16.3231 3.31275C16.6126 3.57661 16.7888 3.90153 16.8516 4.2875L17.1366 6.48171C17.4866 6.60887 17.8032 6.75733 18.0865 6.92708C18.37 7.09683 18.6562 7.29691 18.9449 7.52733L21.0114 6.67916C21.3777 6.51758 21.746 6.50378 22.1162 6.63775C22.4864 6.77153 22.7739 7.00593 22.9787 7.34096L24.2824 9.59816C24.4874 9.94058 24.5464 10.3029 24.4595 10.6852C24.3727 11.0673 24.1738 11.3825 23.8627 11.6308L22.0701 12.9768C22.1119 13.1652 22.1348 13.3414 22.1387 13.5053C22.1424 13.6691 22.1442 13.8339 22.1442 14C22.1442 14.1585 22.1404 14.3197 22.1328 14.4836C22.1254 14.6473 22.0986 14.8347 22.0523 15.0456L23.8111 16.3692C24.1222 16.6175 24.323 16.9327 24.4137 17.3148C24.5041 17.6971 24.4468 18.0594 24.2419 18.4018L22.9203 20.6701C22.7156 21.0127 22.4262 21.2491 22.0523 21.3792C21.6784 21.5092 21.3082 21.4935 20.9417 21.3319L18.9449 20.4727C18.6562 20.7031 18.3615 20.9069 18.0609 21.084C17.7603 21.2613 17.4522 21.4061 17.1366 21.5183L16.8516 23.7125C16.7888 24.0985 16.6126 24.4234 16.3231 24.6872C16.0338 24.9513 15.6902 25.0833 15.2924 25.0833H12.7076ZM12.8333 23.3333H15.1264L15.5458 20.2081C16.1412 20.0526 16.6853 19.8316 17.178 19.5452C17.6709 19.2586 18.1462 18.8902 18.6039 18.44L21.5025 19.6583L22.6514 17.675L20.1206 15.7681C20.2178 15.4659 20.284 15.1697 20.319 14.8794C20.3541 14.5893 20.3717 14.2961 20.3717 14C20.3717 13.6963 20.3541 13.4031 20.319 13.1206C20.284 12.8379 20.2178 12.5492 20.1206 12.2544L22.6736 10.325L21.525 8.34166L18.5926 9.57775C18.2021 9.16047 17.7344 8.7918 17.1894 8.47175C16.6441 8.15169 16.0926 7.92507 15.5347 7.79187L15.1667 4.66666H12.8514L12.4652 7.78079C11.87 7.92137 11.3205 8.13672 10.8165 8.42683C10.3123 8.71714 9.8313 9.09105 9.37358 9.54858L6.47499 8.34166L5.32641 10.325L7.84583 12.2027C7.7486 12.4796 7.68055 12.7676 7.64166 13.0667C7.60277 13.3657 7.58333 13.6805 7.58333 14.0111C7.58333 14.3148 7.60277 14.6125 7.64166 14.9042C7.68055 15.1958 7.74491 15.4838 7.83474 15.7681L5.32641 17.675L6.47499 19.6583L9.36249 18.4333C9.80524 18.8879 10.2786 19.2604 10.7826 19.5507C11.2868 19.8408 11.844 20.0636 12.4542 20.2192L12.8333 23.3333ZM14.0134 17.5C14.9841 17.5 15.8101 17.1593 16.4914 16.478C17.1727 15.7967 17.5134 14.9707 17.5134 14C17.5134 13.0293 17.1727 12.2033 16.4914 11.522C15.8101 10.8407 14.9841 10.5 14.0134 10.5C13.0307 10.5 12.2017 10.8407 11.5264 11.522C10.8511 12.2033 10.5134 13.0293 10.5134 14C10.5134 14.9707 10.8511 15.7967 11.5264 16.478C12.2017 17.1593 13.0307 17.5 14.0134 17.5Z" fill="#9A9A9A"/>
    </g>
</svg>
