<svg width="28" height="28" viewBox="0 0 28 28" fill="none" xmlns="http://www.w3.org/2000/svg">
    <mask id="mask0_33_1709" style="mask-type:alpha" maskUnits="userSpaceOnUse" x="0" y="0" width="28" height="28">
        <rect width="28" height="28" fill="#D9D9D9"/>
    </mask>
    <g mask="url(#mask0_33_1709)">
        <path d="M11.1999 18.2583L13.9999 16.1L16.7999 18.2583L15.7499 14.7L18.3749 12.8333H15.1083L13.9999 9.21667L12.8916 12.8333H9.62495L12.2499 14.7L11.1999 18.2583ZM13.9999 18.2986L10.0759 21.2917C9.90689 21.4218 9.72781 21.4819 9.53861 21.4722C9.34942 21.4625 9.18006 21.4082 9.03053 21.3095C8.881 21.2109 8.76579 21.0729 8.68491 20.8956C8.60421 20.7184 8.6012 20.5274 8.67586 20.3225L10.1814 15.409L6.38978 12.6965C6.20623 12.5797 6.0916 12.4263 6.04591 12.2363C6.00002 12.0465 6.00848 11.8671 6.07128 11.6982C6.13409 11.5292 6.2385 11.3844 6.38453 11.2639C6.53056 11.1435 6.70585 11.0833 6.91041 11.0833H11.6313L13.1608 6.02175C13.2335 5.81467 13.3463 5.65561 13.4992 5.54458C13.652 5.43356 13.8189 5.37804 13.9999 5.37804C14.181 5.37804 14.3479 5.43356 14.5007 5.54458C14.6536 5.65561 14.7663 5.81467 14.8391 6.02175L16.3686 11.0833H21.0895C21.294 11.0833 21.4693 11.1435 21.6154 11.2639C21.7614 11.3844 21.8658 11.5292 21.9286 11.6982C21.9914 11.8671 21.9999 12.0465 21.954 12.2363C21.9083 12.4263 21.7937 12.5797 21.6101 12.6965L17.8184 15.409L19.324 20.3225C19.3987 20.5274 19.3957 20.7184 19.315 20.8956C19.2341 21.0729 19.1189 21.2109 18.9694 21.3095C18.8198 21.4082 18.6505 21.4625 18.4613 21.4722C18.2721 21.4819 18.093 21.4218 17.924 21.2917L13.9999 18.2986Z" fill="#9A9A9A"/>
    </g>
</svg>
