<svg width="60" height="48" viewBox="0 0 60 48" fill="none" xmlns="http://www.w3.org/2000/svg">
    <rect x="29" y="1" width="46" height="46" rx="23" fill="white"/>
    <rect x="29" y="1" width="46" height="46" rx="23" stroke="#46319E" stroke-width="2"/>
    <mask id="mask0_96_858" style="mask-type:alpha" maskUnits="userSpaceOnUse" x="37" y="9" width="29" height="29">
        <rect x="37" y="9" width="29" height="29" fill="#D9D9D9"/>
    </mask>
    <g mask="url(#mask0_96_858)">
        <path d="M49.9896 29.2396H53.0104V26.2188H56.0312V23.1979H53.0104V20.1771H49.9896V23.1979H46.9688V26.2188H49.9896V29.2396ZM42.4375 33.7708V20.1771L51.5 13.3687L60.5625 20.1771V33.7708H42.4375ZM44.25 31.9583H58.75V21.0833L51.5 15.6458L44.25 21.0833V31.9583Z" fill="#46319E"/>
    </g>
    <rect x="0.5" y="0.5" width="47" height="47" rx="23.5" fill="#46319E"/>
    <rect x="0.5" y="0.5" width="47" height="47" rx="23.5" stroke="#46319E"/>
    <mask id="mask1_96_858" style="mask-type:alpha" maskUnits="userSpaceOnUse" x="9" y="9" width="29" height="29">
        <rect x="9" y="9" width="29" height="29" fill="#D9D9D9"/>
    </mask>
    <g mask="url(#mask1_96_858)">
        <path d="M20.1073 32.5625V25.7771H26.8927V32.5625H20.1073ZM21.9198 30.75H25.0802V27.5896H21.9198V30.75ZM11.9024 24.2434L10.8125 22.7983L23.5 13.2292L28.5424 17.0191V14.4375H31.4934V19.2524L36.199 22.7983L35.1094 24.2434L23.5 15.5132L11.9024 24.2434Z" fill="white"/>
    </g>
</svg>
