<svg width="40" height="40" viewBox="0 0 40 40" fill="none" xmlns="http://www.w3.org/2000/svg">
    <mask id="mask0_24_1254" style="mask-type:alpha" maskUnits="userSpaceOnUse" x="0" y="0" width="40" height="40">
        <rect width="40" height="40" fill="#D9D9D9"/>
    </mask>
    <g mask="url(#mask0_24_1254)">
        <path d="M8.3335 31.6667H10.436L27.4968 14.6058L25.3943 12.5033L8.3335 29.5642V31.6667ZM7.34016 34.1667C6.91322 34.1667 6.55544 34.0222 6.26683 33.7333C5.97794 33.4447 5.8335 33.087 5.8335 32.66V29.7725C5.8335 29.3661 5.91155 28.9788 6.06766 28.6104C6.2235 28.2421 6.43822 27.9211 6.71183 27.6475L27.8177 6.55126C28.0696 6.32237 28.3478 6.14557 28.6522 6.02084C28.957 5.89584 29.2764 5.83334 29.6106 5.83334C29.9447 5.83334 30.2684 5.89265 30.5814 6.01126C30.8947 6.12987 31.1721 6.31848 31.4135 6.57709L33.4489 8.63793C33.7075 8.87932 33.8918 9.15709 34.0018 9.47126C34.1118 9.78543 34.1668 10.0996 34.1668 10.4138C34.1668 10.749 34.1096 11.0689 33.9952 11.3733C33.8807 11.6781 33.6986 11.9564 33.4489 12.2083L12.3527 33.2883C12.0791 33.562 11.7581 33.7767 11.3897 33.9325C11.0214 34.0886 10.6341 34.1667 10.2277 34.1667H7.34016ZM26.4272 13.5729L25.3943 12.5033L27.4968 14.6058L26.4272 13.5729Z" fill="#46319E"/>
    </g>
</svg>
