<svg width="19" height="18" viewBox="0 0 19 18" fill="none" xmlns="http://www.w3.org/2000/svg">
    <g clip-path="url(#clip0_1_374)">
        <path d="M9.68365 7.36365V10.8491H14.6262C14.4091 11.97 13.7578 12.9192 12.781 13.5573L15.7616 15.8237C17.4981 14.2529 18.5 11.9456 18.5 9.20466C18.5 8.56648 18.4416 7.95278 18.333 7.36375L9.68365 7.36365Z" fill="#4285F4"/>
        <path d="M4.53685 10.7131L3.86463 11.2174L1.48517 13.0337C2.9963 15.971 6.0935 18.0001 9.68347 18.0001C12.163 18.0001 14.2418 17.1983 15.7614 15.8238L12.7809 13.5574C11.9627 14.0974 10.919 14.4247 9.68347 14.4247C7.29571 14.4247 5.267 12.8456 4.5406 10.7183L4.53685 10.7131Z" fill="#34A853"/>
        <path d="M1.48521 4.96637C0.859085 6.17724 0.500122 7.54363 0.500122 8.99997C0.500122 10.4563 0.859085 11.8227 1.48521 13.0336C1.48521 13.0417 4.54094 10.7099 4.54094 10.7099C4.35727 10.1699 4.2487 9.59723 4.2487 8.99988C4.2487 8.40253 4.35727 7.82983 4.54094 7.28983L1.48521 4.96637Z" fill="#FBBC05"/>
        <path d="M9.68366 3.58365C11.0362 3.58365 12.2384 4.04183 13.1985 4.92548L15.8284 2.34823C14.2337 0.891879 12.1633 0 9.68366 0C6.09368 0 2.9963 2.02092 1.48517 4.9664L4.5408 7.29005C5.26711 5.16274 7.2959 3.58365 9.68366 3.58365Z" fill="#EA4335"/>
    </g>
    <defs>
        <clipPath id="clip0_1_374">
            <rect width="18" height="18" fill="white" transform="translate(0.5)"/>
        </clipPath>
    </defs>
</svg>
