<svg width="35" height="34" viewBox="0 0 35 34" fill="none" xmlns="http://www.w3.org/2000/svg">
    <path d="M10.6472 20.1001L1.52289 29.1877L4.78763 32.4393L13.9436 23.3202L13.4881 20.5662L10.6472 20.1001Z" fill="#46319E"/>
    <path d="M20.1917 23.3329L29.3021 32.4066L32.2262 32.0674L32.5669 29.155L23.4775 20.1022L20.6493 20.5662L20.1917 23.3329Z" fill="#46319E"/>
    <path d="M23.4144 13.8875L32.538 4.80066L29.2732 1.54905L20.1813 10.6043L20.6493 13.4338L23.4144 13.8875Z" fill="#46319E"/>
    <path d="M13.954 10.617L4.81654 1.51636L4.06228 4.01674L1.55179 4.76796L10.7102 13.8896L13.4881 13.4338L13.954 10.617Z" fill="#46319E"/>
    <path d="M17.1636 6.375L19.2875 14.8964L27.8909 17L19.2875 19.1036L17.1636 27.625L15.0398 19.1036L6.43637 17L15.0398 14.8964L17.1636 6.375Z" fill="#46319E"/>
</svg>
