<svg width="80" height="26" viewBox="0 0 80 26" fill="none" xmlns="http://www.w3.org/2000/svg">
    <path d="M10.2387 25.4201C4.847 25.4201 1.28579 22.8544 0.986246 18.6228L0.969604 18.3729H4.59738L4.63066 18.5894C4.96349 20.8052 7.17676 22.188 10.3885 22.188C13.6003 22.188 15.6305 20.7386 15.6305 18.4895V18.4728C15.6305 16.5403 14.3158 15.4907 11.1374 14.7909L8.5247 14.2412C3.81525 13.2416 1.5354 11.0757 1.5354 7.51049V7.49383C1.55205 3.39545 5.16318 0.579895 10.2387 0.579895C15.2477 0.579895 18.6758 3.31215 18.9254 7.34389L18.9421 7.62711H15.3143L15.2977 7.39387C14.9648 5.16142 13.0345 3.81195 10.1888 3.81195C7.21005 3.82861 5.31295 5.24472 5.31295 7.34389V7.36055C5.31295 9.15984 6.67753 10.2594 9.67294 10.9091L12.3022 11.4589C17.2613 12.5085 19.3914 14.5244 19.3914 18.2396V18.2562C19.3914 22.6378 15.93 25.4201 10.2387 25.4201Z" fill="black"/>
    <path d="M27.7792 25.3701C24.3178 25.3701 22.6537 23.904 22.6537 20.4054V10.3594H20.1409V7.49383H22.6537V2.92897H26.3314V7.49383H29.6097V10.3594H26.3314V20.1888C26.3314 21.9714 27.1302 22.5046 28.6445 22.5046C29.0273 22.5046 29.3435 22.4712 29.6097 22.4379V25.2202C29.1937 25.2868 28.5114 25.3701 27.7792 25.3701Z" fill="black"/>
    <path d="M36.7827 25.3368C33.2881 25.3368 30.9417 23.1876 30.9417 20.0389V20.0055C30.9417 16.9568 33.3047 15.0908 37.4484 14.8409L42.2078 14.5577V13.2416C42.2078 11.309 40.9597 10.1428 38.7298 10.1428C36.6496 10.1428 35.3682 11.1257 35.0687 12.5252L35.0354 12.6751H31.6406L31.6573 12.4919C31.9069 9.47638 34.5195 7.16063 38.8296 7.16063C43.1064 7.16063 45.8189 9.4264 45.8189 12.9417V25.0202H42.2078V22.2547H42.1412C41.1261 24.1372 39.0959 25.3368 36.7827 25.3368ZM34.5695 19.9556C34.5695 21.4883 35.8342 22.4546 37.7646 22.4546C40.294 22.4546 42.2078 20.7386 42.2078 18.4562V17.09L37.931 17.3566C35.7676 17.4899 34.5695 18.4395 34.5695 19.9222V19.9556Z" fill="black"/>
    <path d="M54.2548 25.3701C50.7934 25.3701 49.1293 23.904 49.1293 20.4054V10.3594H46.6165V7.49383H49.1293V2.92897H52.807V7.49383H56.0853V10.3594H52.807V20.1888C52.807 21.9714 53.6058 22.5046 55.1201 22.5046C55.5029 22.5046 55.819 22.4712 56.0853 22.4379V25.2202C55.6693 25.2868 54.987 25.3701 54.2548 25.3701Z" fill="black"/>
    <path d="M64.34 25.3701C60.4959 25.3701 58.2992 22.8877 58.2992 18.856V7.49383H61.8937V18.1563C61.8937 20.8052 63.1252 22.2713 65.6214 22.2713C68.1508 22.2713 69.7817 20.4554 69.7817 17.7231V7.49383H73.3928V25.0202H69.7817V22.3879H69.6984C68.7832 24.1539 67.0026 25.3701 64.34 25.3701Z" fill="black"/>
    <path d="M76.4055 25.0202V0.979737H80V25.0202H76.4055Z" fill="black"/>
</svg>
