<svg width="569" height="596" viewBox="0 0 569 596" fill="none" xmlns="http://www.w3.org/2000/svg">
    <g clip-path="url(#clip0_2020_1054)">
        <path d="M167.245 303.487L-0.0737305 470.538L59.7941 530.311L227.693 362.68L219.341 312.055L167.245 303.487Z" fill="#46319E" fill-opacity="0.13"/>
        <path d="M342.269 362.913L509.333 529.71L562.954 523.474L569.201 469.938L402.522 303.526L350.66 312.055L342.269 362.913Z" fill="#46319E" fill-opacity="0.13"/>
        <path d="M401.366 189.284L568.67 22.2472L508.802 -37.5249L342.079 128.933L350.66 180.945L401.366 189.284Z" fill="#46319E" fill-opacity="0.13"/>
        <path d="M227.883 129.165L60.3241 -38.126L46.4927 7.8369L0.456307 21.6462L168.401 189.323L219.341 180.945L227.883 129.165Z" fill="#46319E" fill-opacity="0.13"/>
        <path d="M288.536 191.464C286.583 189.512 283.417 189.512 281.464 191.464L249.645 223.284C247.692 225.237 247.692 228.403 249.645 230.355C251.597 232.308 254.763 232.308 256.716 230.355L285 202.071L313.284 230.355C315.237 232.308 318.403 232.308 320.355 230.355C322.308 228.403 322.308 225.237 320.355 223.284L288.536 191.464ZM290 596V195H280V596H290Z" fill="url(#paint0_linear_2020_1054)"/>
    </g>
    <defs>
        <linearGradient id="paint0_linear_2020_1054" x1="317.5" y1="125" x2="319" y2="611.5" gradientUnits="userSpaceOnUse">
            <stop stop-color="#46319E"/>
            <stop offset="1" stop-color="white" stop-opacity="0"/>
        </linearGradient>
        <clipPath id="clip0_2020_1054">
            <rect width="569" height="596" fill="white"/>
        </clipPath>
    </defs>
</svg>
